/* XPM */
static const char * speaker_quiet_xpm[] = {
"24 24 37 1",
" 	c None",
".	c #D2D2D2",
"+	c #D3D3D3",
"@	c #323232",
"#	c #CCCCCC",
"$	c #BEBEBE",
"%	c #020202",
"&	c #000000",
"*	c #C1C1C1",
"=	c #A2A2A2",
"-	c #D1D1D1",
";	c #848484",
">	c #696969",
",	c #CDCDCD",
"'	c #A8A8A8",
")	c #A6A6A6",
"!	c #A9A9A9",
"~	c #A3A3A3",
"{	c #484848",
"]	c #C8C8C8",
"^	c #C6C6C6",
"/	c #CECECE",
"(	c #BFBFBF",
"_	c #C4C4C4",
":	c #939393",
"<	c #919191",
"[	c #8E8E8E",
"}	c #414141",
"|	c #CBCBCB",
"1	c #636363",
"2	c #CACACA",
"3	c #828282",
"4	c #A7A7A7",
"5	c #171717",
"6	c #434343",
"7	c #CFCFCF",
"8	c #D4D4D4",
"                        ",
"                        ",
"             .          ",
"           +@#          ",
"          $%&*          ",
"         =&&&-          ",
"        ;&&&&*          ",
"       >&&&&&,          ",
" '))!~{&&&&&&]          ",
" &&&&&&&&&&&&^          ",
" &&&&&&&&&&&&/          ",
" &&&&&&&&&&&&(          ",
" &&&&&&&&&&&&-          ",
" &&&&&&&&&&&&_          ",
" :<<:[}&&&&&&|          ",
"       1&&&&&2          ",
"        3&&&&_          ",
"         4&&&-          ",
"          ^5&(          ",
"            67          ",
"             8          ",
"                        ",
"                        ",
"                        "};
