/* XPM */
static const char * speaker_xpm[] = {
"24 24 75 1",
" 	c None",
".	c #D2D2D2",
"+	c #D3D3D3",
"@	c #323232",
"#	c #CCCCCC",
"$	c #B8B8B8",
"%	c #CFCFCF",
"&	c #BEBEBE",
"*	c #020202",
"=	c #000000",
"-	c #C1C1C1",
";	c #5C5C5C",
">	c #444444",
",	c #A2A2A2",
"'	c #D1D1D1",
")	c #303030",
"!	c #818181",
"~	c #848484",
"{	c #A7A7A7",
"]	c #C0C0C0",
"^	c #696969",
"/	c #CDCDCD",
"(	c #575757",
"_	c #4D4D4D",
":	c #525252",
"<	c #777777",
"[	c #A8A8A8",
"}	c #A6A6A6",
"|	c #A9A9A9",
"1	c #A3A3A3",
"2	c #484848",
"3	c #C8C8C8",
"4	c #D7D7D7",
"5	c #AEAEAE",
"6	c #C6C6C6",
"7	c #898989",
"8	c #3D3D3D",
"9	c #CECECE",
"0	c #C7C7C7",
"a	c #0F0F0F",
"b	c #ACACAC",
"c	c #BFBFBF",
"d	c #D0D0D0",
"e	c #BDBDBD",
"f	c #3E3E3E",
"g	c #8E8E8E",
"h	c #4E4E4E",
"i	c #959595",
"j	c #C4C4C4",
"k	c #212121",
"l	c #9A9A9A",
"m	c #939393",
"n	c #919191",
"o	c #414141",
"p	c #CBCBCB",
"q	c #9F9F9F",
"r	c #191919",
"s	c #B9B9B9",
"t	c #636363",
"u	c #CACACA",
"v	c #2D2D2D",
"w	c #C5C5C5",
"x	c #828282",
"y	c #868686",
"z	c #7E7E7E",
"A	c #4C4C4C",
"B	c #A4A4A4",
"C	c #B7B7B7",
"D	c #ABABAB",
"E	c #171717",
"F	c #6E6E6E",
"G	c #434343",
"H	c #D4D4D4",
"I	c #C3C3C3",
"J	c #B0B0B0",
"                        ",
"                        ",
"             .          ",
"           +@#    $%    ",
"          &*=-    ;>    ",
"         ,==='     )!   ",
"        ~====- {   ]='  ",
"       ^=====/ (_   :<  ",
" [}}|12======3 4={  5=  ",
" ============6  78   =] ",
" ============9  0=   ab ",
" ============c  d=e  fg ",
" ============'   =/  hi ",
" ============j  6=%  kl ",
" mnnmgo======p  qr   =s ",
"       t=====u  vm  w=  ",
"        x====j yr   zA  ",
"         {===' BC  /=D  ",
"          6E=c     F2   ",
"            G%    l=d   ",
"             H    IJ    ",
"                        ",
"                        ",
"                        "};
